<svg width="58" height="50" viewBox="0 0 58 50" fill="none" xmlns="http://www.w3.org/2000/svg">
<g filter="url(#filter0_dd_162858_8858)">
<mask id="path-1-inside-1_162858_8858" fill="white">
<path d="M5 21C5 9.95431 13.9543 1 25 1H33C44.0457 1 53 9.95431 53 21C53 32.0457 44.0457 41 33 41H25C13.9543 41 5 32.0457 5 21Z"/>
</mask>
<path d="M5 21C5 9.95431 13.9543 1 25 1H33C44.0457 1 53 9.95431 53 21C53 32.0457 44.0457 41 33 41H25C13.9543 41 5 32.0457 5 21Z" fill="url(#paint0_linear_162858_8858)" shape-rendering="crispEdges"/>
<path d="M5 21M53 21M53 21M5 21M25 1V3H33V1V-1H25V1ZM53 21M33 41V39H25V41V43H33V41ZM5 21M25 41V39C15.0589 39 7 30.9411 7 21H5H3C3 33.1503 12.8497 43 25 43V41ZM53 21H51C51 30.9411 42.9411 39 33 39V41V43C45.1503 43 55 33.1503 55 21H53ZM33 1V3C42.9411 3 51 11.0589 51 21H53H55C55 8.84974 45.1503 -1 33 -1V1ZM25 1V-1C12.8497 -1 3 8.84974 3 21H5H7C7 11.0589 15.0589 3 25 3V1Z" fill="#FFD230" mask="url(#path-1-inside-1_162858_8858)"/>
<path d="M13.7699 18.794V17.2727H20.9375V18.794H18.2656V26H16.4418V18.794H13.7699ZM29.7393 21.6364C29.7393 22.5881 29.5589 23.3977 29.1982 24.0653C28.8402 24.733 28.3516 25.2429 27.7322 25.5952C27.1158 25.9446 26.4226 26.1193 25.6527 26.1193C24.8771 26.1193 24.1811 25.9432 23.5646 25.5909C22.9482 25.2386 22.4609 24.7287 22.103 24.0611C21.745 23.3935 21.5661 22.5852 21.5661 21.6364C21.5661 20.6847 21.745 19.875 22.103 19.2074C22.4609 18.5398 22.9482 18.0312 23.5646 17.6818C24.1811 17.3295 24.8771 17.1534 25.6527 17.1534C26.4226 17.1534 27.1158 17.3295 27.7322 17.6818C28.3516 18.0312 28.8402 18.5398 29.1982 19.2074C29.5589 19.875 29.7393 20.6847 29.7393 21.6364ZM27.8686 21.6364C27.8686 21.0199 27.7763 20.5 27.5916 20.0767C27.4098 19.6534 27.1527 19.3324 26.8203 19.1136C26.4879 18.8949 26.0987 18.7855 25.6527 18.7855C25.2067 18.7855 24.8175 18.8949 24.4851 19.1136C24.1527 19.3324 23.8942 19.6534 23.7095 20.0767C23.5277 20.5 23.4368 21.0199 23.4368 21.6364C23.4368 22.2528 23.5277 22.7727 23.7095 23.196C23.8942 23.6193 24.1527 23.9403 24.4851 24.1591C24.8175 24.3778 25.2067 24.4872 25.6527 24.4872C26.0987 24.4872 26.4879 24.3778 26.8203 24.1591C27.1527 23.9403 27.4098 23.6193 27.5916 23.196C27.7763 22.7727 27.8686 22.2528 27.8686 21.6364ZM31.1062 26V17.2727H34.5494C35.2113 17.2727 35.7752 17.3991 36.2411 17.652C36.707 17.902 37.0621 18.25 37.3065 18.696C37.5536 19.1392 37.6772 19.6506 37.6772 20.2301C37.6772 20.8097 37.5522 21.321 37.3022 21.7642C37.0522 22.2074 36.69 22.5526 36.2156 22.7997C35.744 23.0469 35.1729 23.1705 34.5025 23.1705H32.3079V21.6918H34.2042C34.5593 21.6918 34.8519 21.6307 35.082 21.5085C35.315 21.3835 35.4883 21.2116 35.6019 20.9929C35.7184 20.7713 35.7766 20.517 35.7766 20.2301C35.7766 19.9403 35.7184 19.6875 35.6019 19.4716C35.4883 19.2528 35.315 19.0838 35.082 18.9645C34.8491 18.8423 34.5536 18.7812 34.1957 18.7812H32.9513V26H31.1062ZM42.6214 17.2727V26H40.7763V19.0241H40.7251L38.7266 20.277V18.6406L40.8871 17.2727H42.6214Z" fill="#7B3306"/>
</g>
<defs>
<filter id="filter0_dd_162858_8858" x="0" y="0" width="58" height="50" filterUnits="userSpaceOnUse" color-interpolation-filters="sRGB">
<feFlood flood-opacity="0" result="BackgroundImageFix"/>
<feColorMatrix in="SourceAlpha" type="matrix" values="0 0 0 0 0 0 0 0 0 0 0 0 0 0 0 0 0 0 127 0" result="hardAlpha"/>
<feMorphology radius="2" operator="erode" in="SourceAlpha" result="effect1_dropShadow_162858_8858"/>
<feOffset dy="2"/>
<feGaussianBlur stdDeviation="2"/>
<feComposite in2="hardAlpha" operator="out"/>
<feColorMatrix type="matrix" values="0 0 0 0 0.996078 0 0 0 0 0.901961 0 0 0 0 0.521569 0 0 0 1 0"/>
<feBlend mode="normal" in2="BackgroundImageFix" result="effect1_dropShadow_162858_8858"/>
<feColorMatrix in="SourceAlpha" type="matrix" values="0 0 0 0 0 0 0 0 0 0 0 0 0 0 0 0 0 0 127 0" result="hardAlpha"/>
<feMorphology radius="1" operator="erode" in="SourceAlpha" result="effect2_dropShadow_162858_8858"/>
<feOffset dy="4"/>
<feGaussianBlur stdDeviation="3"/>
<feComposite in2="hardAlpha" operator="out"/>
<feColorMatrix type="matrix" values="0 0 0 0 0.996078 0 0 0 0 0.901961 0 0 0 0 0.521569 0 0 0 1 0"/>
<feBlend mode="normal" in2="effect1_dropShadow_162858_8858" result="effect2_dropShadow_162858_8858"/>
<feBlend mode="normal" in="SourceGraphic" in2="effect2_dropShadow_162858_8858" result="shape"/>
</filter>
<linearGradient id="paint0_linear_162858_8858" x1="5" y1="1" x2="44.3443" y2="48.2131" gradientUnits="userSpaceOnUse">
<stop stop-color="#FFB900"/>
<stop offset="0.5" stop-color="#FDC700"/>
<stop offset="1" stop-color="#FE9A00"/>
</linearGradient>
</defs>
</svg>
