<svg width="58" height="50" viewBox="0 0 58 50" fill="none" xmlns="http://www.w3.org/2000/svg">
<g filter="url(#filter0_dd_162858_8874)">
<mask id="path-1-inside-1_162858_8874" fill="white">
<path d="M5 21C5 9.95431 13.9543 1 25 1H33C44.0457 1 53 9.95431 53 21C53 32.0457 44.0457 41 33 41H25C13.9543 41 5 32.0457 5 21Z"/>
</mask>
<path d="M5 21C5 9.95431 13.9543 1 25 1H33C44.0457 1 53 9.95431 53 21C53 32.0457 44.0457 41 33 41H25C13.9543 41 5 32.0457 5 21Z" fill="url(#paint0_linear_162858_8874)" shape-rendering="crispEdges"/>
<path d="M5 21M53 21M53 21M5 21M25 1V3H33V1V-1H25V1ZM53 21M33 41V39H25V41V43H33V41ZM5 21M25 41V39C15.0589 39 7 30.9411 7 21H5H3C3 33.1503 12.8497 43 25 43V41ZM53 21H51C51 30.9411 42.9411 39 33 39V41V43C45.1503 43 55 33.1503 55 21H53ZM33 1V3C42.9411 3 51 11.0589 51 21H53H55C55 8.84974 45.1503 -1 33 -1V1ZM25 1V-1C12.8497 -1 3 8.84974 3 21H5H7C7 11.0589 15.0589 3 25 3V1Z" fill="#D1D5DC" mask="url(#path-1-inside-1_162858_8874)"/>
<path d="M13.0043 18.794V17.2727H20.1719V18.794H17.5V26H15.6761V18.794H13.0043ZM28.9737 21.6364C28.9737 22.5881 28.7933 23.3977 28.4325 24.0653C28.0746 24.733 27.5859 25.2429 26.9666 25.5952C26.3501 25.9446 25.657 26.1193 24.8871 26.1193C24.1115 26.1193 23.4155 25.9432 22.799 25.5909C22.1825 25.2386 21.6953 24.7287 21.3374 24.0611C20.9794 23.3935 20.8004 22.5852 20.8004 21.6364C20.8004 20.6847 20.9794 19.875 21.3374 19.2074C21.6953 18.5398 22.1825 18.0312 22.799 17.6818C23.4155 17.3295 24.1115 17.1534 24.8871 17.1534C25.657 17.1534 26.3501 17.3295 26.9666 17.6818C27.5859 18.0312 28.0746 18.5398 28.4325 19.2074C28.7933 19.875 28.9737 20.6847 28.9737 21.6364ZM27.103 21.6364C27.103 21.0199 27.0107 20.5 26.826 20.0767C26.6442 19.6534 26.3871 19.3324 26.0547 19.1136C25.7223 18.8949 25.3331 18.7855 24.8871 18.7855C24.4411 18.7855 24.0518 18.8949 23.7195 19.1136C23.3871 19.3324 23.1286 19.6534 22.9439 20.0767C22.7621 20.5 22.6712 21.0199 22.6712 21.6364C22.6712 22.2528 22.7621 22.7727 22.9439 23.196C23.1286 23.6193 23.3871 23.9403 23.7195 24.1591C24.0518 24.3778 24.4411 24.4872 24.8871 24.4872C25.3331 24.4872 25.7223 24.3778 26.0547 24.1591C26.3871 23.9403 26.6442 23.6193 26.826 23.196C27.0107 22.7727 27.103 22.2528 27.103 21.6364ZM30.3406 26V17.2727H33.7837C34.4457 17.2727 35.0096 17.3991 35.4755 17.652C35.9414 17.902 36.2965 18.25 36.5408 18.696C36.788 19.1392 36.9116 19.6506 36.9116 20.2301C36.9116 20.8097 36.7866 21.321 36.5366 21.7642C36.2866 22.2074 35.9244 22.5526 35.4499 22.7997C34.9783 23.0469 34.4073 23.1705 33.7369 23.1705H31.5423V21.6918H33.4386C33.7937 21.6918 34.0863 21.6307 34.3164 21.5085C34.5494 21.3835 34.7227 21.2116 34.8363 20.9929C34.9528 20.7713 35.011 20.517 35.011 20.2301C35.011 19.9403 34.9528 19.6875 34.8363 19.4716C34.7227 19.2528 34.5494 19.0838 34.3164 18.9645C34.0835 18.8423 33.788 18.7812 33.43 18.7812H32.1857V26H30.3406ZM38.0589 26V24.6705L41.1655 21.794C41.4297 21.5384 41.6513 21.3082 41.8303 21.1037C42.0121 20.8991 42.1499 20.6989 42.2436 20.5028C42.3374 20.304 42.3842 20.0895 42.3842 19.8594C42.3842 19.6037 42.326 19.3835 42.2095 19.1989C42.093 19.0114 41.9339 18.8679 41.7322 18.7685C41.5305 18.6662 41.3018 18.6151 41.0462 18.6151C40.7791 18.6151 40.5462 18.669 40.3473 18.777C40.1484 18.8849 39.995 19.0398 39.8871 19.2415C39.7791 19.4432 39.7251 19.6832 39.7251 19.9616H37.9737C37.9737 19.3906 38.103 18.8949 38.3615 18.4744C38.62 18.054 38.9822 17.7287 39.4482 17.4986C39.9141 17.2685 40.451 17.1534 41.0589 17.1534C41.6839 17.1534 42.228 17.2642 42.6911 17.4858C43.157 17.7045 43.5192 18.0085 43.7777 18.3977C44.0362 18.7869 44.1655 19.233 44.1655 19.7358C44.1655 20.0653 44.1001 20.3906 43.9695 20.7116C43.8416 21.0327 43.6129 21.3892 43.2834 21.7812C42.9538 22.1705 42.4893 22.6378 41.8899 23.1832L40.6158 24.4318V24.4915H44.2805V26H38.0589Z" fill="#364153"/>
</g>
<defs>
<filter id="filter0_dd_162858_8874" x="0" y="0" width="58" height="50" filterUnits="userSpaceOnUse" color-interpolation-filters="sRGB">
<feFlood flood-opacity="0" result="BackgroundImageFix"/>
<feColorMatrix in="SourceAlpha" type="matrix" values="0 0 0 0 0 0 0 0 0 0 0 0 0 0 0 0 0 0 127 0" result="hardAlpha"/>
<feMorphology radius="2" operator="erode" in="SourceAlpha" result="effect1_dropShadow_162858_8874"/>
<feOffset dy="2"/>
<feGaussianBlur stdDeviation="2"/>
<feComposite in2="hardAlpha" operator="out"/>
<feColorMatrix type="matrix" values="0 0 0 0 0.898039 0 0 0 0 0.905882 0 0 0 0 0.921569 0 0 0 1 0"/>
<feBlend mode="normal" in2="BackgroundImageFix" result="effect1_dropShadow_162858_8874"/>
<feColorMatrix in="SourceAlpha" type="matrix" values="0 0 0 0 0 0 0 0 0 0 0 0 0 0 0 0 0 0 127 0" result="hardAlpha"/>
<feMorphology radius="1" operator="erode" in="SourceAlpha" result="effect2_dropShadow_162858_8874"/>
<feOffset dy="4"/>
<feGaussianBlur stdDeviation="3"/>
<feComposite in2="hardAlpha" operator="out"/>
<feColorMatrix type="matrix" values="0 0 0 0 0.898039 0 0 0 0 0.905882 0 0 0 0 0.921569 0 0 0 1 0"/>
<feBlend mode="normal" in2="effect1_dropShadow_162858_8874" result="effect2_dropShadow_162858_8874"/>
<feBlend mode="normal" in="SourceGraphic" in2="effect2_dropShadow_162858_8874" result="shape"/>
</filter>
<linearGradient id="paint0_linear_162858_8874" x1="5" y1="1" x2="44.3443" y2="48.2131" gradientUnits="userSpaceOnUse">
<stop stop-color="#D1D5DC"/>
<stop offset="0.5" stop-color="#E5E7EB"/>
<stop offset="1" stop-color="#99A1AF"/>
</linearGradient>
</defs>
</svg>
