<svg width="58" height="50" viewBox="0 0 58 50" fill="none" xmlns="http://www.w3.org/2000/svg">
<g filter="url(#filter0_dd_162858_8882)">
<mask id="path-1-inside-1_162858_8882" fill="white">
<path d="M5 21C5 9.95431 13.9543 1 25 1H33C44.0457 1 53 9.95431 53 21C53 32.0457 44.0457 41 33 41H25C13.9543 41 5 32.0457 5 21Z"/>
</mask>
<path d="M5 21C5 9.95431 13.9543 1 25 1H33C44.0457 1 53 9.95431 53 21C53 32.0457 44.0457 41 33 41H25C13.9543 41 5 32.0457 5 21Z" fill="url(#paint0_linear_162858_8882)" shape-rendering="crispEdges"/>
<path d="M5 21M53 21M53 21M5 21M25 1V3H33V1V-1H25V1ZM53 21M33 41V39H25V41V43H33V41ZM5 21M25 41V39C15.0589 39 7 30.9411 7 21H5H3C3 33.1503 12.8497 43 25 43V41ZM53 21H51C51 30.9411 42.9411 39 33 39V41V43C45.1503 43 55 33.1503 55 21H53ZM33 1V3C42.9411 3 51 11.0589 51 21H53H55C55 8.84974 45.1503 -1 33 -1V1ZM25 1V-1C12.8497 -1 3 8.84974 3 21H5H7C7 11.0589 15.0589 3 25 3V1Z" fill="#FFB86A" mask="url(#path-1-inside-1_162858_8882)"/>
<path d="M12.8324 17.794V16.2727H20V17.794H17.3281V25H15.5043V17.794H12.8324ZM28.8018 20.6364C28.8018 21.5881 28.6214 22.3977 28.2607 23.0653C27.9027 23.733 27.4141 24.2429 26.7947 24.5952C26.1783 24.9446 25.4851 25.1193 24.7152 25.1193C23.9396 25.1193 23.2436 24.9432 22.6271 24.5909C22.0107 24.2386 21.5234 23.7287 21.1655 23.0611C20.8075 22.3935 20.6286 21.5852 20.6286 20.6364C20.6286 19.6847 20.8075 18.875 21.1655 18.2074C21.5234 17.5398 22.0107 17.0312 22.6271 16.6818C23.2436 16.3295 23.9396 16.1534 24.7152 16.1534C25.4851 16.1534 26.1783 16.3295 26.7947 16.6818C27.4141 17.0312 27.9027 17.5398 28.2607 18.2074C28.6214 18.875 28.8018 19.6847 28.8018 20.6364ZM26.9311 20.6364C26.9311 20.0199 26.8388 19.5 26.6541 19.0767C26.4723 18.6534 26.2152 18.3324 25.8828 18.1136C25.5504 17.8949 25.1612 17.7855 24.7152 17.7855C24.2692 17.7855 23.88 17.8949 23.5476 18.1136C23.2152 18.3324 22.9567 18.6534 22.772 19.0767C22.5902 19.5 22.4993 20.0199 22.4993 20.6364C22.4993 21.2528 22.5902 21.7727 22.772 22.196C22.9567 22.6193 23.2152 22.9403 23.5476 23.1591C23.88 23.3778 24.2692 23.4872 24.7152 23.4872C25.1612 23.4872 25.5504 23.3778 25.8828 23.1591C26.2152 22.9403 26.4723 22.6193 26.6541 22.196C26.8388 21.7727 26.9311 21.2528 26.9311 20.6364ZM30.1687 25V16.2727H33.6119C34.2738 16.2727 34.8377 16.3991 35.3036 16.652C35.7695 16.902 36.1246 17.25 36.369 17.696C36.6161 18.1392 36.7397 18.6506 36.7397 19.2301C36.7397 19.8097 36.6147 20.321 36.3647 20.7642C36.1147 21.2074 35.7525 21.5526 35.2781 21.7997C34.8065 22.0469 34.2354 22.1705 33.565 22.1705H31.3704V20.6918H33.2667C33.6218 20.6918 33.9144 20.6307 34.1445 20.5085C34.3775 20.3835 34.5508 20.2116 34.6644 19.9929C34.7809 19.7713 34.8391 19.517 34.8391 19.2301C34.8391 18.9403 34.7809 18.6875 34.6644 18.4716C34.5508 18.2528 34.3775 18.0838 34.1445 17.9645C33.9116 17.8423 33.6161 17.7812 33.2582 17.7812H32.0138V25H30.1687ZM41.1129 25.1193C40.4766 25.1193 39.9098 25.0099 39.4126 24.7912C38.9183 24.5696 38.5277 24.2656 38.2408 23.8793C37.9567 23.4901 37.8104 23.0412 37.8018 22.5327H39.6598C39.6712 22.7457 39.7408 22.9332 39.8686 23.0952C39.9993 23.2543 40.1726 23.3778 40.3885 23.4659C40.6044 23.554 40.8473 23.598 41.1172 23.598C41.3984 23.598 41.647 23.5483 41.8629 23.4489C42.0788 23.3494 42.2479 23.2116 42.37 23.0355C42.4922 22.8594 42.5533 22.6562 42.5533 22.4261C42.5533 22.1932 42.4879 21.9872 42.3572 21.8082C42.2294 21.6264 42.0447 21.4844 41.8033 21.3821C41.5646 21.2798 41.2805 21.2287 40.951 21.2287H40.1371V19.8736H40.951C41.2294 19.8736 41.4751 19.8253 41.6882 19.7287C41.9041 19.6321 42.0717 19.4986 42.1911 19.3281C42.3104 19.1548 42.37 18.9531 42.37 18.723C42.37 18.5043 42.3175 18.3125 42.2124 18.1477C42.1101 17.9801 41.9652 17.8494 41.7777 17.7557C41.593 17.6619 41.3771 17.6151 41.13 17.6151C40.88 17.6151 40.6513 17.6605 40.4439 17.7514C40.2365 17.8395 40.0703 17.9659 39.9453 18.1307C39.8203 18.2955 39.7536 18.4886 39.745 18.7102H37.9766C37.9851 18.2074 38.1286 17.7642 38.407 17.3807C38.6854 16.9972 39.0604 16.6974 39.532 16.4815C40.0064 16.2628 40.5419 16.1534 41.1385 16.1534C41.7408 16.1534 42.2678 16.2628 42.7195 16.4815C43.1712 16.7003 43.522 16.9957 43.772 17.3679C44.0249 17.7372 44.1499 18.152 44.147 18.6122C44.1499 19.1009 43.9979 19.5085 43.6911 19.8352C43.3871 20.1619 42.9908 20.3693 42.5021 20.4574V20.5256C43.1442 20.608 43.6328 20.831 43.968 21.1946C44.3061 21.5554 44.4737 22.0071 44.4709 22.5497C44.4737 23.0469 44.3303 23.4886 44.0405 23.875C43.7536 24.2614 43.3572 24.5653 42.8516 24.7869C42.3459 25.0085 41.7663 25.1193 41.1129 25.1193Z" fill="#7E2A0C"/>
</g>
<defs>
<filter id="filter0_dd_162858_8882" x="0" y="0" width="58" height="50" filterUnits="userSpaceOnUse" color-interpolation-filters="sRGB">
<feFlood flood-opacity="0" result="BackgroundImageFix"/>
<feColorMatrix in="SourceAlpha" type="matrix" values="0 0 0 0 0 0 0 0 0 0 0 0 0 0 0 0 0 0 127 0" result="hardAlpha"/>
<feMorphology radius="2" operator="erode" in="SourceAlpha" result="effect1_dropShadow_162858_8882"/>
<feOffset dy="2"/>
<feGaussianBlur stdDeviation="2"/>
<feComposite in2="hardAlpha" operator="out"/>
<feColorMatrix type="matrix" values="0 0 0 0 1 0 0 0 0 0.839216 0 0 0 0 0.658824 0 0 0 1 0"/>
<feBlend mode="normal" in2="BackgroundImageFix" result="effect1_dropShadow_162858_8882"/>
<feColorMatrix in="SourceAlpha" type="matrix" values="0 0 0 0 0 0 0 0 0 0 0 0 0 0 0 0 0 0 127 0" result="hardAlpha"/>
<feMorphology radius="1" operator="erode" in="SourceAlpha" result="effect2_dropShadow_162858_8882"/>
<feOffset dy="4"/>
<feGaussianBlur stdDeviation="3"/>
<feComposite in2="hardAlpha" operator="out"/>
<feColorMatrix type="matrix" values="0 0 0 0 1 0 0 0 0 0.839216 0 0 0 0 0.658824 0 0 0 1 0"/>
<feBlend mode="normal" in2="effect1_dropShadow_162858_8882" result="effect2_dropShadow_162858_8882"/>
<feBlend mode="normal" in="SourceGraphic" in2="effect2_dropShadow_162858_8882" result="shape"/>
</filter>
<linearGradient id="paint0_linear_162858_8882" x1="5" y1="1" x2="44.3443" y2="48.2131" gradientUnits="userSpaceOnUse">
<stop stop-color="#FF8904"/>
<stop offset="0.5" stop-color="#FFD230"/>
<stop offset="1" stop-color="#FF6900"/>
</linearGradient>
</defs>
</svg>
