<svg width="58" height="50" viewBox="0 0 58 50" fill="none" xmlns="http://www.w3.org/2000/svg">
<g filter="url(#filter0_dd_162858_8888)">
<mask id="path-1-inside-1_162858_8888" fill="white">
<path d="M5 21C5 9.95431 13.9543 1 25 1H33C44.0457 1 53 9.95431 53 21C53 32.0457 44.0457 41 33 41H25C13.9543 41 5 32.0457 5 21Z"/>
</mask>
<path d="M5 21C5 9.95431 13.9543 1 25 1H33C44.0457 1 53 9.95431 53 21C53 32.0457 44.0457 41 33 41H25C13.9543 41 5 32.0457 5 21Z" fill="url(#paint0_linear_162858_8888)" shape-rendering="crispEdges"/>
<path d="M5 21M53 21M53 21M5 21M25 1V3H33V1V-1H25V1ZM53 21M33 41V39H25V41V43H33V41ZM5 21M25 41V39C15.0589 39 7 30.9411 7 21H5H3C3 33.1503 12.8497 43 25 43V41ZM53 21H51C51 30.9411 42.9411 39 33 39V41V43C45.1503 43 55 33.1503 55 21H53ZM33 1V3C42.9411 3 51 11.0589 51 21H53H55C55 8.84974 45.1503 -1 33 -1V1ZM25 1V-1C12.8497 -1 3 8.84974 3 21H5H7C7 11.0589 15.0589 3 25 3V1Z" fill="#8EC5FF" mask="url(#path-1-inside-1_162858_8888)"/>
<path d="M12.9261 17.794V16.2727H20.0938V17.794H17.4219V25H15.598V17.794H12.9261ZM28.8956 20.6364C28.8956 21.5881 28.7152 22.3977 28.3544 23.0653C27.9964 23.733 27.5078 24.2429 26.8885 24.5952C26.272 24.9446 25.5788 25.1193 24.8089 25.1193C24.0334 25.1193 23.3374 24.9432 22.7209 24.5909C22.1044 24.2386 21.6172 23.7287 21.2592 23.0611C20.9013 22.3935 20.7223 21.5852 20.7223 20.6364C20.7223 19.6847 20.9013 18.875 21.2592 18.2074C21.6172 17.5398 22.1044 17.0312 22.7209 16.6818C23.3374 16.3295 24.0334 16.1534 24.8089 16.1534C25.5788 16.1534 26.272 16.3295 26.8885 16.6818C27.5078 17.0312 27.9964 17.5398 28.3544 18.2074C28.7152 18.875 28.8956 19.6847 28.8956 20.6364ZM27.0249 20.6364C27.0249 20.0199 26.9325 19.5 26.7479 19.0767C26.5661 18.6534 26.3089 18.3324 25.9766 18.1136C25.6442 17.8949 25.255 17.7855 24.8089 17.7855C24.3629 17.7855 23.9737 17.8949 23.6413 18.1136C23.3089 18.3324 23.0504 18.6534 22.8658 19.0767C22.6839 19.5 22.593 20.0199 22.593 20.6364C22.593 21.2528 22.6839 21.7727 22.8658 22.196C23.0504 22.6193 23.3089 22.9403 23.6413 23.1591C23.9737 23.3778 24.3629 23.4872 24.8089 23.4872C25.255 23.4872 25.6442 23.3778 25.9766 23.1591C26.3089 22.9403 26.5661 22.6193 26.7479 22.196C26.9325 21.7727 27.0249 21.2528 27.0249 20.6364ZM30.2624 25V16.2727H33.7056C34.3675 16.2727 34.9315 16.3991 35.3974 16.652C35.8633 16.902 36.2184 17.25 36.4627 17.696C36.7099 18.1392 36.8335 18.6506 36.8335 19.2301C36.8335 19.8097 36.7085 20.321 36.4585 20.7642C36.2085 21.2074 35.8462 21.5526 35.3718 21.7997C34.9002 22.0469 34.3292 22.1705 33.6587 22.1705H31.4641V20.6918H33.3604C33.7156 20.6918 34.0082 20.6307 34.2383 20.5085C34.4712 20.3835 34.6445 20.2116 34.7582 19.9929C34.8746 19.7713 34.9329 19.517 34.9329 19.2301C34.9329 18.9403 34.8746 18.6875 34.7582 18.4716C34.6445 18.2528 34.4712 18.0838 34.2383 17.9645C34.0053 17.8423 33.7099 17.7812 33.3519 17.7812H32.1076V25H30.2624ZM37.8487 23.4659V22.0128L41.4922 16.2727H42.745V18.2841H42.0036L39.7067 21.919V21.9872H44.8842V23.4659H37.8487ZM42.0376 25V23.0227L42.0717 22.3793V16.2727H43.8018V25H42.0376Z" fill="#1C398E"/>
</g>
<defs>
<filter id="filter0_dd_162858_8888" x="0" y="0" width="58" height="50" filterUnits="userSpaceOnUse" color-interpolation-filters="sRGB">
<feFlood flood-opacity="0" result="BackgroundImageFix"/>
<feColorMatrix in="SourceAlpha" type="matrix" values="0 0 0 0 0 0 0 0 0 0 0 0 0 0 0 0 0 0 127 0" result="hardAlpha"/>
<feMorphology radius="2" operator="erode" in="SourceAlpha" result="effect1_dropShadow_162858_8888"/>
<feOffset dy="2"/>
<feGaussianBlur stdDeviation="2"/>
<feComposite in2="hardAlpha" operator="out"/>
<feColorMatrix type="matrix" values="0 0 0 0 0.745098 0 0 0 0 0.858824 0 0 0 0 1 0 0 0 1 0"/>
<feBlend mode="normal" in2="BackgroundImageFix" result="effect1_dropShadow_162858_8888"/>
<feColorMatrix in="SourceAlpha" type="matrix" values="0 0 0 0 0 0 0 0 0 0 0 0 0 0 0 0 0 0 127 0" result="hardAlpha"/>
<feMorphology radius="1" operator="erode" in="SourceAlpha" result="effect2_dropShadow_162858_8888"/>
<feOffset dy="4"/>
<feGaussianBlur stdDeviation="3"/>
<feComposite in2="hardAlpha" operator="out"/>
<feColorMatrix type="matrix" values="0 0 0 0 0.745098 0 0 0 0 0.858824 0 0 0 0 1 0 0 0 1 0"/>
<feBlend mode="normal" in2="effect1_dropShadow_162858_8888" result="effect2_dropShadow_162858_8888"/>
<feBlend mode="normal" in="SourceGraphic" in2="effect2_dropShadow_162858_8888" result="shape"/>
</filter>
<linearGradient id="paint0_linear_162858_8888" x1="5" y1="1" x2="44.3443" y2="48.2131" gradientUnits="userSpaceOnUse">
<stop stop-color="#51A2FF"/>
<stop offset="1" stop-color="#2B7FFF"/>
</linearGradient>
</defs>
</svg>
