<svg width="58" height="50" viewBox="0 0 58 50" fill="none" xmlns="http://www.w3.org/2000/svg">
<g filter="url(#filter0_dd_162858_8898)">
<mask id="path-1-inside-1_162858_8898" fill="white">
<path d="M5 21C5 9.95431 13.9543 1 25 1H33C44.0457 1 53 9.95431 53 21C53 32.0457 44.0457 41 33 41H25C13.9543 41 5 32.0457 5 21Z"/>
</mask>
<path d="M5 21C5 9.95431 13.9543 1 25 1H33C44.0457 1 53 9.95431 53 21C53 32.0457 44.0457 41 33 41H25C13.9543 41 5 32.0457 5 21Z" fill="url(#paint0_linear_162858_8898)" shape-rendering="crispEdges"/>
<path d="M5 21M53 21M53 21M5 21M25 1V3H33V1V-1H25V1ZM53 21M33 41V39H25V41V43H33V41ZM5 21M25 41V39C15.0589 39 7 30.9411 7 21H5H3C3 33.1503 12.8497 43 25 43V41ZM53 21H51C51 30.9411 42.9411 39 33 39V41V43C45.1503 43 55 33.1503 55 21H53ZM33 1V3C42.9411 3 51 11.0589 51 21H53H55C55 8.84974 45.1503 -1 33 -1V1ZM25 1V-1C12.8497 -1 3 8.84974 3 21H5H7C7 11.0589 15.0589 3 25 3V1Z" fill="#DAB2FF" mask="url(#path-1-inside-1_162858_8898)"/>
<path d="M12.8636 17.794V16.2727H20.0312V17.794H17.3594V25H15.5355V17.794H12.8636ZM28.8331 20.6364C28.8331 21.5881 28.6527 22.3977 28.2919 23.0653C27.9339 23.733 27.4453 24.2429 26.826 24.5952C26.2095 24.9446 25.5163 25.1193 24.7464 25.1193C23.9709 25.1193 23.2749 24.9432 22.6584 24.5909C22.0419 24.2386 21.5547 23.7287 21.1967 23.0611C20.8388 22.3935 20.6598 21.5852 20.6598 20.6364C20.6598 19.6847 20.8388 18.875 21.1967 18.2074C21.5547 17.5398 22.0419 17.0312 22.6584 16.6818C23.2749 16.3295 23.9709 16.1534 24.7464 16.1534C25.5163 16.1534 26.2095 16.3295 26.826 16.6818C27.4453 17.0312 27.9339 17.5398 28.2919 18.2074C28.6527 18.875 28.8331 19.6847 28.8331 20.6364ZM26.9624 20.6364C26.9624 20.0199 26.87 19.5 26.6854 19.0767C26.5036 18.6534 26.2464 18.3324 25.9141 18.1136C25.5817 17.8949 25.1925 17.7855 24.7464 17.7855C24.3004 17.7855 23.9112 17.8949 23.5788 18.1136C23.2464 18.3324 22.9879 18.6534 22.8033 19.0767C22.6214 19.5 22.5305 20.0199 22.5305 20.6364C22.5305 21.2528 22.6214 21.7727 22.8033 22.196C22.9879 22.6193 23.2464 22.9403 23.5788 23.1591C23.9112 23.3778 24.3004 23.4872 24.7464 23.4872C25.1925 23.4872 25.5817 23.3778 25.9141 23.1591C26.2464 22.9403 26.5036 22.6193 26.6854 22.196C26.87 21.7727 26.9624 21.2528 26.9624 20.6364ZM30.1999 25V16.2727H33.6431C34.305 16.2727 34.869 16.3991 35.3349 16.652C35.8008 16.902 36.1559 17.25 36.4002 17.696C36.6474 18.1392 36.771 18.6506 36.771 19.2301C36.771 19.8097 36.646 20.321 36.396 20.7642C36.146 21.2074 35.7837 21.5526 35.3093 21.7997C34.8377 22.0469 34.2667 22.1705 33.5962 22.1705H31.4016V20.6918H33.2979C33.6531 20.6918 33.9457 20.6307 34.1758 20.5085C34.4087 20.3835 34.582 20.2116 34.6957 19.9929C34.8121 19.7713 34.8704 19.517 34.8704 19.2301C34.8704 18.9403 34.8121 18.6875 34.6957 18.4716C34.582 18.2528 34.4087 18.0838 34.1758 17.9645C33.9428 17.8423 33.6474 17.7812 33.2894 17.7812H32.0451V25H30.1999ZM41.1058 25.1193C40.5036 25.1193 39.9666 25.0085 39.495 24.7869C39.0263 24.5653 38.6541 24.2599 38.3786 23.8707C38.103 23.4815 37.9595 23.0355 37.9482 22.5327H39.7379C39.7578 22.8707 39.8999 23.1449 40.1641 23.3551C40.4283 23.5653 40.7422 23.6705 41.1058 23.6705C41.3956 23.6705 41.6513 23.6065 41.8729 23.4787C42.0973 23.348 42.272 23.1676 42.397 22.9375C42.5249 22.7045 42.5888 22.4375 42.5888 22.1364C42.5888 21.8295 42.5234 21.5597 42.3928 21.3267C42.2649 21.0937 42.0874 20.9119 41.8601 20.7812C41.6328 20.6506 41.3729 20.5838 41.0803 20.581C40.8246 20.581 40.576 20.6335 40.3345 20.7386C40.0959 20.8437 39.9098 20.9872 39.7763 21.169L38.1357 20.875L38.549 16.2727H43.8842V17.7812H40.0703L39.8445 19.9673H39.8956C40.049 19.7514 40.2805 19.5724 40.5902 19.4304C40.8999 19.2884 41.2464 19.2173 41.63 19.2173C42.1555 19.2173 42.6243 19.3409 43.0362 19.5881C43.4482 19.8352 43.7734 20.1747 44.0121 20.6065C44.2507 21.0355 44.3686 21.5298 44.3658 22.0895C44.3686 22.6776 44.2322 23.2003 43.9567 23.6577C43.6839 24.1122 43.3018 24.4702 42.8104 24.7315C42.3217 24.9901 41.7536 25.1193 41.1058 25.1193Z" fill="#59168B"/>
</g>
<defs>
<filter id="filter0_dd_162858_8898" x="0" y="0" width="58" height="50" filterUnits="userSpaceOnUse" color-interpolation-filters="sRGB">
<feFlood flood-opacity="0" result="BackgroundImageFix"/>
<feColorMatrix in="SourceAlpha" type="matrix" values="0 0 0 0 0 0 0 0 0 0 0 0 0 0 0 0 0 0 127 0" result="hardAlpha"/>
<feMorphology radius="2" operator="erode" in="SourceAlpha" result="effect1_dropShadow_162858_8898"/>
<feOffset dy="2"/>
<feGaussianBlur stdDeviation="2"/>
<feComposite in2="hardAlpha" operator="out"/>
<feColorMatrix type="matrix" values="0 0 0 0 0.913725 0 0 0 0 0.831373 0 0 0 0 1 0 0 0 1 0"/>
<feBlend mode="normal" in2="BackgroundImageFix" result="effect1_dropShadow_162858_8898"/>
<feColorMatrix in="SourceAlpha" type="matrix" values="0 0 0 0 0 0 0 0 0 0 0 0 0 0 0 0 0 0 127 0" result="hardAlpha"/>
<feMorphology radius="1" operator="erode" in="SourceAlpha" result="effect2_dropShadow_162858_8898"/>
<feOffset dy="4"/>
<feGaussianBlur stdDeviation="3"/>
<feComposite in2="hardAlpha" operator="out"/>
<feColorMatrix type="matrix" values="0 0 0 0 0.913725 0 0 0 0 0.831373 0 0 0 0 1 0 0 0 1 0"/>
<feBlend mode="normal" in2="effect1_dropShadow_162858_8898" result="effect2_dropShadow_162858_8898"/>
<feBlend mode="normal" in="SourceGraphic" in2="effect2_dropShadow_162858_8898" result="shape"/>
</filter>
<linearGradient id="paint0_linear_162858_8898" x1="5" y1="1" x2="44.3443" y2="48.2131" gradientUnits="userSpaceOnUse">
<stop stop-color="#C27AFF"/>
<stop offset="1" stop-color="#AD46FF"/>
</linearGradient>
</defs>
</svg>
